<svg width="198" height="54" viewBox="0 0 198 54" fill="none" xmlns="http://www.w3.org/2000/svg">
<path d="M15.325 19.112H5.981L3.805 25H0.637L9.309 2.6H10.685C11.6023 2.6 12.253 3.10133 12.637 4.104L20.669 25H17.533L15.325 19.112ZM6.877 16.552H14.429L10.685 6.44H10.653L6.877 16.552ZM28.5798 25C26.8304 25 25.5611 24.616 24.7718 23.848C24.0038 23.08 23.6198 21.8427 23.6198 20.136V11.624H20.8038V9.032H23.6518V4.2H26.5958V9.032H30.7558V11.624H26.5958V20.072C26.5958 20.904 26.7558 21.5013 27.0758 21.864C27.4171 22.2267 27.9611 22.408 28.7078 22.408H30.7558V25H28.5798ZM38.9768 25.256C37.3768 25.256 36.0968 24.8507 35.1368 24.04C34.1768 23.208 33.6968 22.1093 33.6968 20.744V19.688C33.6968 18.344 34.1981 17.2667 35.2008 16.456C36.2034 15.624 37.5154 15.208 39.1368 15.208H41.1528C41.7928 15.208 42.4754 15.304 43.2008 15.496C43.9261 15.688 44.5448 15.9547 45.0568 16.296V13.96C45.0568 13.1707 44.8114 12.5413 44.3208 12.072C43.8301 11.5813 43.1901 11.336 42.4008 11.336H39.7768C38.9661 11.336 38.3154 11.528 37.8248 11.912C37.3341 12.296 37.0888 12.7973 37.0888 13.416H34.1448C34.1448 12.0293 34.6568 10.9093 35.6808 10.056C36.7261 9.20267 38.0914 8.776 39.7768 8.776H42.4008C44.0861 8.776 45.4408 9.256 46.4648 10.216C47.4888 11.1547 48.0008 12.4027 48.0008 13.96V25H45.2168V22.856C44.7261 23.5813 44.0861 24.168 43.2968 24.616C42.5074 25.0427 41.7074 25.256 40.8968 25.256H38.9768ZM41.0568 22.792C41.9954 22.792 42.8274 22.5253 43.5528 21.992C44.2781 21.4373 44.7794 20.7013 45.0568 19.784V18.824C44.6514 18.4613 44.0968 18.1733 43.3928 17.96C42.6888 17.7467 41.9634 17.64 41.2168 17.64H39.1688C38.4221 17.64 37.8141 17.832 37.3448 18.216C36.8754 18.6 36.6408 19.112 36.6408 19.752V20.712C36.6408 21.352 36.8648 21.864 37.3128 22.248C37.7821 22.6107 38.4008 22.792 39.1688 22.792H41.0568ZM52.4945 9.032H55.4705V25H52.4945V9.032ZM55.3105 0.807999H58.6705L55.2785 5.96H52.4945L55.3105 0.807999ZM65.3623 25.256C63.6129 25.256 62.1943 24.6907 61.1063 23.56C60.0396 22.4293 59.5063 20.936 59.5063 19.08V15.304C59.5063 14.024 59.7623 12.8933 60.2743 11.912C60.7863 10.9093 61.5009 10.1413 62.4183 9.608C63.3569 9.05333 64.4343 8.776 65.6503 8.776H67.8263C68.5089 8.776 69.1809 8.936 69.8423 9.256C70.5036 9.576 71.0369 10.0027 71.4423 10.536V2.6H74.4503V25H71.6023V22.728C71.1329 23.4747 70.5143 24.0827 69.7463 24.552C68.9783 25.0213 68.2103 25.256 67.4423 25.256H65.3623ZM67.5703 22.632C68.5729 22.632 69.4476 22.2267 70.1943 21.416C70.9409 20.584 71.3569 19.6027 71.4423 18.472V14.856C71.2929 13.8107 70.8983 12.9787 70.2583 12.36C69.6396 11.72 68.8929 11.4 68.0183 11.4H65.8743C64.8716 11.4 64.0503 11.7733 63.4103 12.52C62.7916 13.2453 62.4823 14.216 62.4823 15.432V18.984C62.4823 20.072 62.7703 20.9573 63.3463 21.64C63.9436 22.3013 64.6903 22.632 65.5863 22.632H67.5703ZM84.5275 25.256C82.6502 25.256 81.1355 24.7227 79.9835 23.656C78.8528 22.568 78.2875 21.1493 78.2875 19.4V14.984C78.2875 13.1067 78.8528 11.6027 79.9835 10.472C81.1355 9.34133 82.6502 8.776 84.5275 8.776H87.1515C88.9648 8.776 90.4262 9.33067 91.5355 10.44C92.6448 11.5493 93.1995 13.0213 93.1995 14.856V17.864H81.2635V19.4C81.2635 20.3813 81.5622 21.1707 82.1595 21.768C82.7568 22.3653 83.5462 22.664 84.5275 22.664H86.9915C87.9515 22.664 88.7302 22.4187 89.3275 21.928C89.9248 21.416 90.2235 20.744 90.2235 19.912H93.1355C93.1355 21.512 92.5702 22.8027 91.4395 23.784C90.3088 24.7653 88.8155 25.256 86.9595 25.256H84.5275ZM90.2235 15.496V14.856C90.2235 13.7893 89.9355 12.936 89.3595 12.296C88.8048 11.656 88.0688 11.336 87.1515 11.336H84.5275C83.5462 11.336 82.7568 11.6773 82.1595 12.36C81.5622 13.0213 81.2635 13.9067 81.2635 15.016V15.496H90.2235ZM110.611 25.256C109.331 25.256 108.2 24.9467 107.219 24.328C106.237 23.688 105.469 22.8027 104.915 21.672C104.381 20.52 104.115 19.1973 104.115 17.704H107.155C107.155 19.1547 107.464 20.328 108.083 21.224C108.723 22.0987 109.565 22.536 110.611 22.536H113.299C114.387 22.536 115.251 22.0773 115.891 21.16C116.531 20.2427 116.851 18.984 116.851 17.384V2.6H119.891V17.448C119.891 19.8587 119.304 21.768 118.131 23.176C116.979 24.5627 115.389 25.256 113.363 25.256H110.611ZM129.232 25.256C127.675 25.256 126.416 24.7333 125.456 23.688C124.517 22.6427 124.048 21.2667 124.048 19.56V9.032H127.024V19.624C127.024 20.52 127.248 21.2453 127.696 21.8C128.144 22.3547 128.731 22.632 129.456 22.632H131.376C132.272 22.632 133.093 22.2693 133.84 21.544C134.587 20.8187 135.077 19.9013 135.312 18.792V9.032H138.288V25H135.472V22.696C134.96 23.4427 134.32 24.0613 133.552 24.552C132.784 25.0213 132.027 25.256 131.28 25.256H129.232ZM142.771 9.032H145.619V11.24C146.089 10.5147 146.707 9.928 147.475 9.48C148.265 9.01067 149.043 8.776 149.811 8.776H151.923C153.459 8.776 154.697 9.288 155.635 10.312C156.595 11.336 157.075 12.68 157.075 14.344V25H154.099V14.344C154.099 13.4693 153.875 12.7653 153.427 12.232C152.979 11.6773 152.393 11.4 151.667 11.4H149.683C148.766 11.4 147.934 11.752 147.187 12.456C146.441 13.16 145.961 14.0773 145.747 15.208V25H142.771V9.032ZM163.445 6.92C162.826 6.92 162.325 6.73867 161.941 6.376C161.557 5.992 161.365 5.50133 161.365 4.904C161.365 4.30667 161.557 3.82667 161.941 3.464C162.325 3.08 162.826 2.888 163.445 2.888C164.064 2.888 164.554 3.08 164.917 3.464C165.301 3.82667 165.493 4.30667 165.493 4.904C165.493 5.50133 165.301 5.992 164.917 6.376C164.554 6.73867 164.064 6.92 163.445 6.92ZM161.941 9.032H164.917V25H161.941V9.032ZM175.559 25.256C173.681 25.256 172.167 24.6907 171.015 23.56C169.884 22.4293 169.319 20.9467 169.319 19.112V14.952C169.319 13.096 169.895 11.6027 171.047 10.472C172.199 9.34133 173.724 8.776 175.623 8.776H178.311C180.209 8.776 181.735 9.34133 182.887 10.472C184.039 11.6027 184.615 13.096 184.615 14.952V19.112C184.615 20.9467 184.028 22.4293 182.855 23.56C181.703 24.6907 180.177 25.256 178.279 25.256H175.559ZM178.247 22.632C179.271 22.632 180.092 22.3013 180.711 21.64C181.329 20.9787 181.639 20.0933 181.639 18.984V15.048C181.639 13.9387 181.329 13.0533 180.711 12.392C180.113 11.7307 179.313 11.4 178.311 11.4H175.623C174.62 11.4 173.809 11.7307 173.191 12.392C172.593 13.0533 172.295 13.9387 172.295 15.048V18.984C172.295 20.0933 172.593 20.9787 173.191 21.64C173.788 22.3013 174.588 22.632 175.591 22.632H178.247ZM188.459 9.032H191.307V11.368C191.733 10.664 192.352 10.088 193.163 9.64C193.995 9.192 194.859 8.968 195.755 8.968H197.419V11.624H195.755C194.453 11.624 193.408 12.0293 192.619 12.84C191.829 13.6293 191.435 14.6747 191.435 15.976V25H188.459V9.032Z" fill="#FBFCF8"/>
<path d="M20.6397 49.192C19.5517 49.192 18.5917 48.96 17.7597 48.496C16.9437 48.016 16.3117 47.344 15.8637 46.48C15.4157 45.616 15.1917 44.624 15.1917 43.504V32.2H17.4717V43.504C17.4717 44.592 17.7597 45.472 18.3357 46.144C18.9277 46.816 19.6957 47.152 20.6397 47.152H23.2077C24.1517 47.152 24.9117 46.816 25.4877 46.144C26.0797 45.472 26.3757 44.592 26.3757 43.504V32.2H28.6557V43.504C28.6557 44.624 28.4317 45.616 27.9837 46.48C27.5357 47.344 26.8957 48.016 26.0637 48.496C25.2477 48.96 24.2957 49.192 23.2077 49.192H20.6397ZM32.3558 32.2H34.6358V49H32.3558V32.2ZM46.3885 31.672H48.6445L39.6205 49.6H37.3645L46.3885 31.672ZM56.4991 49.192C55.4111 49.192 54.4511 48.96 53.6191 48.496C52.8031 48.016 52.1711 47.344 51.7231 46.48C51.2751 45.616 51.0511 44.624 51.0511 43.504V32.2H53.3311V43.504C53.3311 44.592 53.6191 45.472 54.1951 46.144C54.7871 46.816 55.5551 47.152 56.4991 47.152H59.0671C60.0111 47.152 60.7711 46.816 61.3471 46.144C61.9391 45.472 62.2351 44.592 62.2351 43.504V32.2H64.5151V43.504C64.5151 44.624 64.2911 45.616 63.8431 46.48C63.3951 47.344 62.7551 48.016 61.9231 48.496C61.1071 48.96 60.1551 49.192 59.0671 49.192H56.4991ZM72.3672 40.432L66.6792 32.2H69.2712L73.6632 38.56L78.0552 32.2H80.6232L74.9352 40.432L80.8632 49H78.2712L73.6632 42.304L69.0312 49H66.4392L72.3672 40.432ZM93.1428 49.192C91.8308 49.192 90.7668 48.768 89.9508 47.92C89.1508 47.072 88.7508 45.952 88.7508 44.56V41.728C88.7508 40.768 88.9428 39.92 89.3268 39.184C89.7108 38.432 90.2468 37.856 90.9348 37.456C91.6388 37.04 92.4468 36.832 93.3588 36.832H94.9908C95.5028 36.832 96.0068 36.952 96.5028 37.192C96.9988 37.432 97.3988 37.752 97.7028 38.152V32.2H99.9588V49H97.8228V47.296C97.4708 47.856 97.0068 48.312 96.4308 48.664C95.8548 49.016 95.2788 49.192 94.7028 49.192H93.1428ZM94.7988 47.224C95.5508 47.224 96.2068 46.92 96.7668 46.312C97.3268 45.688 97.6388 44.952 97.7028 44.104V41.392C97.5908 40.608 97.2948 39.984 96.8148 39.52C96.3508 39.04 95.7908 38.8 95.1348 38.8H93.5268C92.7748 38.8 92.1588 39.08 91.6788 39.64C91.2148 40.184 90.9828 40.912 90.9828 41.824V44.488C90.9828 45.304 91.1988 45.968 91.6308 46.48C92.0788 46.976 92.6388 47.224 93.3108 47.224H94.7988ZM107.517 49.192C106.109 49.192 104.973 48.792 104.109 47.992C103.261 47.176 102.837 46.112 102.837 44.8V41.488C102.837 40.08 103.261 38.952 104.109 38.104C104.973 37.256 106.109 36.832 107.517 36.832H109.485C110.845 36.832 111.941 37.248 112.773 38.08C113.605 38.912 114.021 40.016 114.021 41.392V43.648H105.069V44.8C105.069 45.536 105.293 46.128 105.741 46.576C106.189 47.024 106.781 47.248 107.517 47.248H109.365C110.085 47.248 110.669 47.064 111.117 46.696C111.565 46.312 111.789 45.808 111.789 45.184H113.973C113.973 46.384 113.549 47.352 112.701 48.088C111.853 48.824 110.733 49.192 109.341 49.192H107.517ZM111.789 41.872V41.392C111.789 40.592 111.573 39.952 111.141 39.472C110.725 38.992 110.173 38.752 109.485 38.752H107.517C106.781 38.752 106.189 39.008 105.741 39.52C105.293 40.016 105.069 40.68 105.069 41.512V41.872H111.789ZM120.466 49.192C119.17 49.192 118.13 48.84 117.346 48.136C116.562 47.416 116.17 46.472 116.17 45.304H118.354C118.354 45.896 118.546 46.376 118.93 46.744C119.314 47.112 119.826 47.296 120.466 47.296H122.578C123.186 47.296 123.674 47.184 124.042 46.96C124.41 46.72 124.594 46.408 124.594 46.024V45.328C124.594 45.072 124.482 44.848 124.258 44.656C124.05 44.448 123.778 44.312 123.442 44.248L119.29 43.528C118.41 43.368 117.706 43.04 117.178 42.544C116.65 42.032 116.386 41.44 116.386 40.768V39.976C116.386 39.032 116.762 38.272 117.514 37.696C118.266 37.12 119.274 36.832 120.538 36.832H122.554C123.754 36.832 124.714 37.16 125.434 37.816C126.17 38.472 126.538 39.344 126.538 40.432H124.354C124.338 39.92 124.162 39.512 123.826 39.208C123.506 38.888 123.082 38.728 122.554 38.728H120.562C119.97 38.728 119.498 38.848 119.146 39.088C118.81 39.328 118.642 39.648 118.642 40.048V40.648C118.642 40.904 118.754 41.128 118.978 41.32C119.202 41.512 119.49 41.648 119.842 41.728L124.042 42.472C124.874 42.616 125.546 42.936 126.058 43.432C126.586 43.928 126.85 44.504 126.85 45.16V46.096C126.85 47.024 126.458 47.776 125.674 48.352C124.89 48.912 123.858 49.192 122.578 49.192H120.466ZM131.056 35.44C130.592 35.44 130.216 35.304 129.928 35.032C129.64 34.744 129.496 34.376 129.496 33.928C129.496 33.48 129.64 33.12 129.928 32.848C130.216 32.56 130.592 32.416 131.056 32.416C131.52 32.416 131.888 32.56 132.16 32.848C132.448 33.12 132.592 33.48 132.592 33.928C132.592 34.376 132.448 34.744 132.16 35.032C131.888 35.304 131.52 35.44 131.056 35.44ZM129.928 37.024H132.16V49H129.928V37.024ZM140.094 53.872C138.958 53.872 138.014 53.56 137.262 52.936C136.526 52.312 136.118 51.496 136.038 50.488H138.27C138.318 50.92 138.51 51.272 138.846 51.544C139.182 51.816 139.598 51.952 140.094 51.952H142.134C142.854 51.952 143.414 51.696 143.814 51.184C144.23 50.688 144.438 50 144.438 49.12V47.512C144.086 47.944 143.646 48.296 143.118 48.568C142.59 48.84 142.086 48.976 141.606 48.976H139.878C139.014 48.976 138.246 48.784 137.574 48.4C136.902 48.016 136.382 47.472 136.014 46.768C135.646 46.064 135.462 45.256 135.462 44.344V41.656C135.462 40.712 135.654 39.872 136.038 39.136C136.438 38.4 136.99 37.832 137.694 37.432C138.398 37.032 139.206 36.832 140.118 36.832H141.702C142.214 36.832 142.742 36.976 143.286 37.264C143.83 37.536 144.254 37.888 144.558 38.32V37.024H146.67V49.12C146.67 50.592 146.262 51.752 145.446 52.6C144.646 53.448 143.542 53.872 142.134 53.872H140.094ZM141.678 47.032C142.414 47.032 143.038 46.736 143.55 46.144C144.078 45.552 144.374 44.792 144.438 43.864V41.344C144.374 40.592 144.102 39.984 143.622 39.52C143.142 39.04 142.566 38.8 141.894 38.8H140.238C139.486 38.8 138.87 39.072 138.39 39.616C137.926 40.144 137.694 40.848 137.694 41.728V44.272C137.694 45.088 137.91 45.752 138.342 46.264C138.774 46.776 139.318 47.032 139.974 47.032H141.678ZM150.028 37.024H152.164V38.68C152.516 38.136 152.98 37.696 153.556 37.36C154.148 37.008 154.732 36.832 155.308 36.832H156.892C158.044 36.832 158.972 37.216 159.676 37.984C160.396 38.752 160.756 39.76 160.756 41.008V49H158.524V41.008C158.524 40.352 158.356 39.824 158.02 39.424C157.684 39.008 157.244 38.8 156.7 38.8H155.212C154.524 38.8 153.9 39.064 153.34 39.592C152.78 40.12 152.42 40.808 152.26 41.656V49H150.028V37.024ZM168.173 49.192C166.765 49.192 165.629 48.792 164.765 47.992C163.917 47.176 163.493 46.112 163.493 44.8V41.488C163.493 40.08 163.917 38.952 164.765 38.104C165.629 37.256 166.765 36.832 168.173 36.832H170.141C171.501 36.832 172.597 37.248 173.429 38.08C174.261 38.912 174.677 40.016 174.677 41.392V43.648H165.725V44.8C165.725 45.536 165.949 46.128 166.397 46.576C166.845 47.024 167.437 47.248 168.173 47.248H170.021C170.741 47.248 171.325 47.064 171.773 46.696C172.221 46.312 172.445 45.808 172.445 45.184H174.629C174.629 46.384 174.205 47.352 173.357 48.088C172.509 48.824 171.389 49.192 169.997 49.192H168.173ZM172.445 41.872V41.392C172.445 40.592 172.229 39.952 171.797 39.472C171.381 38.992 170.829 38.752 170.141 38.752H168.173C167.437 38.752 166.845 39.008 166.397 39.52C165.949 40.016 165.725 40.68 165.725 41.512V41.872H172.445ZM177.426 37.024H179.562V38.776C179.882 38.248 180.346 37.816 180.954 37.48C181.578 37.144 182.226 36.976 182.898 36.976H184.146V38.968H182.898C181.922 38.968 181.138 39.272 180.546 39.88C179.954 40.472 179.658 41.256 179.658 42.232V49H177.426V37.024Z" fill="#FBFCF8"/>
</svg>
