<svg width="96" height="75" viewBox="0 0 96 75" fill="none" xmlns="http://www.w3.org/2000/svg">
<g id="LOGOS">
<path id="LOGO" fill-rule="evenodd" clip-rule="evenodd" d="M48 0.409058L45.415 4.47729L24.842 36.8545L4.67197 32.0641L0 30.9545L0.941737 35.6632L7.71466 69.5278L8.72727 74.5909L12.4649 71.0285L31.6185 52.7727H33.039L30.5455 57.1363L44.9144 71.5053L48 74.5909L51.0856 71.5053L65.4545 57.1363L62.961 52.7727H64.3823L83.5352 71.0284L87.2727 74.5909L88.2854 69.5277L95.0585 35.6618L96 30.9545L91.3287 32.0608L71.1487 36.8397L50.585 4.47729L48 0.409058ZM66.6548 37.9039L48 8.54552L29.3341 37.9214L38.5733 40.1157L40.0686 40.4708L45.4871 30.9885L48 26.5909L50.5129 30.9885L55.9176 40.4467L57.4055 40.0943L66.6548 37.9039ZM22.3658 40.7514L5.61371 36.7728L11.4522 65.9654L25.2938 52.7727H19.8973H14.7273L17.5 48.4091L22.3658 40.7514ZM29.872 48.4091H22.67L26.8579 41.8183L34.8063 43.706L29.872 48.4091ZM38.0648 52.7727H38.071L39.4452 50.357L48 35.3861L56.9816 51.1038L57.9311 52.7727H57.9352L60.0123 56.4075L48 68.4198L35.9878 56.4075L38.0648 52.7727ZM66.1288 48.4091L61.1739 43.6862L69.1316 41.8017L73.33 48.4091H66.1288ZM70.7069 52.7727H76.1027H81.2727L78.5 48.4091L73.6254 40.7375L90.3872 36.768L84.5478 65.9653L70.7069 52.7727Z" fill="#9747FF"/>
</g>
</svg>
